<svg
    xmlns="http://www.w3.org/2000/svg"
    viewBox="0 0 24 24"
    id="vector">
    <path
        id="path"
        d="M 12 2 C 10.144 2 8.363 2.738 7.05 4.05 C 5.738 5.363 5 7.144 5 9 C 5 13.17 9.42 18.92 11.24 21.11 C 11.365 21.261 11.531 21.371 11.718 21.428 C 11.905 21.484 12.105 21.484 12.292 21.428 C 12.479 21.371 12.645 21.261 12.77 21.11 C 14.58 18.92 19 13.17 19 9 C 19 7.771 18.677 6.564 18.062 5.5 C 17.448 4.436 16.564 3.552 15.5 2.938 C 14.436 2.323 13.229 2 12 2 Z M 12 11.5 C 11.337 11.5 10.701 11.236 10.232 10.768 C 9.764 10.299 9.5 9.663 9.5 9 C 9.5 8.337 9.764 7.701 10.232 7.232 C 10.701 6.764 11.337 6.5 12 6.5 C 12.663 6.5 13.299 6.764 13.768 7.232 C 14.236 7.701 14.5 8.337 14.5 9 C 14.5 9.663 14.236 10.299 13.768 10.768 C 13.299 11.236 12.663 11.5 12 11.5 Z"
        fill="#ff0101"
        stroke="#212121"
        stroke-width="1"/>
</svg>
