<svg
    xmlns="http://www.w3.org/2000/svg"
    viewBox="0 0 24 24"
    id="vector">
    <path
        id="path"
        d="M 15.5 5.5 C 16.6 5.5 17.5 4.6 17.5 3.5 C 17.5 2.4 16.6 1.5 15.5 1.5 C 14.4 1.5 13.5 2.4 13.5 3.5 C 13.5 4.6 14.4 5.5 15.5 5.5 Z M 5 12 C 2.2 12 0 14.2 0 17 C 0 19.8 2.2 22 5 22 C 7.8 22 10 19.8 10 17 C 10 14.2 7.8 12 5 12 Z M 5 20.5 C 3.1 20.5 1.5 18.9 1.5 17 C 1.5 15.1 3.1 13.5 5 13.5 C 6.9 13.5 8.5 15.1 8.5 17 C 8.5 18.9 6.9 20.5 5 20.5 Z M 10.8 10.5 L 13.2 8.1 L 14 8.9 C 15.06 9.96 16.38 10.68 17.96 10.92 C 18.56 11.01 19.1 10.53 19.1 9.92 C 19.1 9.43 18.73 9.01 18.25 8.93 C 17.14 8.75 16.23 8.22 15.5 7.5 L 13.6 5.6 C 13.1 5.2 12.6 5 12 5 C 11.4 5 10.9 5.2 10.6 5.6 L 7.8 8.4 C 7.4 8.8 7.2 9.3 7.2 9.8 C 7.2 10.4 7.4 10.9 7.8 11.2 L 11 14 L 11 18 C 11 18.55 11.45 19 12 19 C 12.55 19 13 18.55 13 18 L 13 13.6 C 13 13.08 12.8 12.59 12.45 12.22 L 10.8 10.5 Z M 19 12 C 16.2 12 14 14.2 14 17 C 14 19.8 16.2 22 19 22 C 21.8 22 24 19.8 24 17 C 24 14.2 21.8 12 19 12 Z M 19 20.5 C 17.1 20.5 15.5 18.9 15.5 17 C 15.5 15.1 17.1 13.5 19 13.5 C 20.9 13.5 22.5 15.1 22.5 17 C 22.5 18.9 20.9 20.5 19 20.5 Z"
        fill="#000000"/>
</svg>
