<svg
    xmlns="http://www.w3.org/2000/svg"
    viewBox="0 0 24 24"
    id="vector">
    <path
        id="path"
        d="M 12 4 L 5 4 C 3.34 4 2 5.34 2 7 L 2 15 C 2 16.66 3.34 18 5 18 L 4.23 18.77 C 3.95 19.05 3.95 19.49 4.23 19.77 C 4.51 20.05 4.95 20.05 5.23 19.77 L 7 18 L 9 18 L 9 13 L 4.5 13 C 4.22 13 4 12.78 4 12.5 L 4 6.5 C 4 6.22 4.22 6 4.5 6 L 12.5 6 C 12.78 6 13 6.22 13 6.5 L 13 8 L 15 8 L 15 7 C 15 5.34 13.66 4 12 4 Z M 5 14 C 5.55 14 6 14.45 6 15 C 6 15.55 5.55 16 5 16 C 4.45 16 4 15.55 4 15 C 4 14.45 4.45 14 5 14 Z M 20.57 9.66 C 20.43 9.26 20.05 9 19.6 9 L 12.41 9 C 11.95 9 11.58 9.26 11.43 9.66 L 10.01 13.77 L 10.01 19.01 C 10.01 19.56 10.46 20 11.01 20 C 11.56 20 12.01 19.55 12.01 19 L 12.01 18 L 20.01 18 L 20.01 19 C 20.01 19.55 20.46 20 21.01 20 C 21.56 20 22 19.56 22.01 19.01 L 22 13.77 L 20.57 9.66 Z M 12.77 10 L 19.25 10 C 19.46 10 19.65 10.14 19.72 10.34 L 20.41 12.34 C 20.52 12.66 20.28 13 19.94 13 L 12.09 13 C 11.75 13 11.51 12.66 11.62 12.34 L 12.31 10.34 C 12.36 10.14 12.55 10 12.77 10 Z M 12 16 C 11.45 16 11 15.55 11 15 C 11 14.45 11.45 14 12 14 C 12.55 14 13 14.45 13 15 C 13 15.55 12.55 16 12 16 Z M 20 16 C 19.45 16 19 15.55 19 15 C 19 14.45 19.45 14 20 14 C 20.55 14 21 14.45 21 15 C 21 15.55 20.55 16 20 16 Z"
        fill="#000000"/>
</svg>
