<svg
    xmlns="http://www.w3.org/2000/svg"
    viewBox="0 0 24 24"
    id="vector">
    <path
        id="path"
        d="M 13.49 5.48 C 14.59 5.48 15.49 4.58 15.49 3.48 C 15.49 2.38 14.59 1.48 13.49 1.48 C 12.39 1.48 11.49 2.38 11.49 3.48 C 11.49 4.58 12.39 5.48 13.49 5.48 Z M 10.32 17.48 L 10.89 14.98 L 12.99 16.98 L 12.99 21.98 C 12.99 22.53 13.44 22.98 13.99 22.98 C 14.54 22.98 14.99 22.53 14.99 21.98 L 14.99 16.34 C 14.99 15.79 14.77 15.27 14.37 14.89 L 12.89 13.48 L 13.49 10.48 C 14.56 11.72 16.11 12.61 17.85 12.89 C 18.45 12.98 18.99 12.5 18.99 11.89 C 18.99 11.4 18.63 10.99 18.14 10.91 C 16.62 10.66 15.36 9.76 14.69 8.58 L 13.69 6.98 C 13.29 6.38 12.69 5.98 11.99 5.98 C 11.69 5.98 11.49 6.08 11.19 6.08 L 7.21 7.76 C 6.47 8.08 5.99 8.8 5.99 9.61 L 5.99 11.98 C 5.99 12.53 6.44 12.98 6.99 12.98 C 7.54 12.98 7.99 12.53 7.99 11.98 L 7.99 9.58 L 9.79 8.88 L 8.19 16.98 L 4.27 16.18 C 3.73 16.07 3.2 16.42 3.09 16.96 L 3.09 17 C 2.98 17.54 3.33 18.07 3.87 18.18 L 7.98 19 C 9.04 19.21 10.08 18.54 10.32 17.48 Z"
        fill="#000000"/>
</svg>
