<svg
    xmlns="http://www.w3.org/2000/svg"
    viewBox="0 0 24 24"
    id="vector">
    <path
        id="path"
        d="M 13.5 5.5 C 14.6 5.5 15.5 4.6 15.5 3.5 C 15.5 2.4 14.6 1.5 13.5 1.5 C 12.4 1.5 11.5 2.4 11.5 3.5 C 11.5 4.6 12.4 5.5 13.5 5.5 Z M 9.8 8.9 L 7.24 21.81 C 7.11 22.42 7.59 23 8.22 23 L 8.3 23 C 8.77 23 9.17 22.68 9.28 22.22 L 10.9 15 L 13 17 L 13 22 C 13 22.55 13.45 23 14 23 C 14.55 23 15 22.55 15 22 L 15 16.36 C 15 15.81 14.78 15.29 14.38 14.91 L 12.9 13.5 L 13.5 10.5 C 14.57 11.74 16.12 12.63 17.86 12.91 C 18.46 13 19 12.52 19 11.91 C 19 11.42 18.64 11.01 18.15 10.93 C 16.63 10.68 15.37 9.78 14.7 8.6 L 13.7 7 C 13.14 6.11 12.02 5.75 11.05 6.16 L 7.22 7.78 C 6.48 8.1 6 8.82 6 9.63 L 6 12 C 6 12.55 6.45 13 7 13 C 7.55 13 8 12.55 8 12 L 8 9.6 L 9.8 8.9"
        fill="#000000"/>
</svg>
