<svg
    xmlns="http://www.w3.org/2000/svg"
    viewBox="0 0 76 76"
    id="vector">
    <path
        id="path"
        d="M 9.2 9 C 8.199 9 7.036 10.529 7.036 12.504 L 7 63.5 C 7 65.471 8.183 67 9.2 67 L 66.8 67 C 67.817 67 69 65.471 69 63.5 L 69 21 C 69 19.029 67.817 17.5 66.8 17.5 L 38 17.5 L 35.683 17.5 L 34.185 15.732 L 28.483 9 L 9.2 9 M 9.2 4 L 30.8 4 L 38 12.5 L 66.8 12.5 C 70.76 12.5 74 16.325 74 21 L 74 63.5 C 74 68.175 70.76 72 66.8 72 L 9.2 72 C 5.24 72 2 68.175 2 63.5 L 2.036 12.5 C 2.036 7.825 5.24 4 9.2 4 Z"
        fill="#ffdd00"
        stroke="#00000000"/>
</svg>
