<svg
    xmlns="http://www.w3.org/2000/svg"
    viewBox="0 0 80 60"
    id="vector">
    <path
        id="path"
        d="M 56.92 56.032 L 23.061 56.032 C 12.545 56.032 4 47.914 4 37.919 C 4.005 35.551 4.49 33.209 5.425 31.033 C 6.359 28.858 7.724 26.894 9.438 25.26 C 12.524 22.277 16.519 20.408 20.787 19.95 C 21.32 15.81 23.3 11.99 26.376 9.168 C 30.022 5.844 34.782 4.001 39.715 4.001 C 44.648 4.001 49.408 5.844 53.054 9.168 C 56.125 11.972 58.107 15.776 58.644 19.9 C 68.364 20.723 76 28.5 76 37.941 C 76 47.918 67.436 56.041 56.92 56.041 Z M 56.996 52.653 L 57.148 52.653 C 65.561 52.653 72.401 46.127 72.401 38.08 C 72.401 30.052 65.561 23.507 57.148 23.507 L 57 23.507 C 56.486 23.515 55.988 23.324 55.61 22.975 C 55.233 22.625 55.005 22.143 54.973 21.63 C 54.779 13.781 47.939 7.4 39.716 7.4 C 31.493 7.4 24.653 13.781 24.463 21.63 C 24.442 22.139 24.225 22.621 23.858 22.975 C 23.491 23.328 23.002 23.527 22.492 23.53 C 14.288 23.7 7.6 30.231 7.6 38.08 C 7.6 46.108 14.44 52.653 22.853 52.653 L 57 52.653 Z M 49.496 36.847 L 49.496 36.847 C 49.598 36.909 49.681 36.997 49.737 37.102 C 49.792 37.207 49.819 37.325 49.813 37.444 C 49.807 37.563 49.77 37.678 49.704 37.777 C 49.599 37.927 49.44 38.031 49.261 38.068 C 49.081 38.105 48.894 38.073 48.738 37.977 C 48.441 37.796 48.171 37.573 47.938 37.315 C 45.589 39.297 42.612 40.387 39.538 40.39 C 36.464 40.394 33.486 39.31 31.132 37.333 C 30.898 37.586 30.629 37.803 30.332 37.977 C 30.176 38.073 29.989 38.105 29.809 38.068 C 29.63 38.031 29.471 37.927 29.366 37.777 C 29.3 37.678 29.263 37.563 29.257 37.444 C 29.251 37.325 29.278 37.207 29.333 37.102 C 29.389 36.997 29.472 36.909 29.574 36.847 C 29.939 36.61 30.244 36.291 30.464 35.915 C 30.685 35.539 30.814 35.118 30.843 34.683 C 30.855 34.501 30.937 34.331 31.071 34.208 C 31.205 34.085 31.381 34.018 31.563 34.021 C 31.683 34.02 31.8 34.051 31.904 34.11 C 32.008 34.17 32.094 34.256 32.154 34.359 C 32.214 34.463 32.245 34.58 32.245 34.7 C 32.218 35.207 32.095 35.704 31.885 36.166 C 34.002 38.017 36.722 39.036 39.534 39.033 C 42.346 39.03 45.063 38.004 47.176 36.148 C 46.978 35.69 46.864 35.199 46.84 34.7 C 46.849 34.519 46.927 34.349 47.057 34.223 C 47.188 34.098 47.361 34.027 47.542 34.024 C 47.723 34.022 47.898 34.089 48.032 34.211 C 48.165 34.333 48.247 34.502 48.261 34.682 C 48.278 35.115 48.398 35.538 48.613 35.915 C 48.827 36.291 49.129 36.611 49.493 36.846 Z"
        fill="#297ef1"
        fill-rule="evenodd"/>
</svg>
